<mxfile host="app.diagrams.net" modified="2023-06-08T08:25:12.729Z" agent="Mozilla/5.0 (Macintosh; Intel Mac OS X 10_15_7) AppleWebKit/605.1.15 (KHTML, like Gecko) Version/15.3 Safari/605.1.15" etag="A4VzO6wA2esAFdDFJuQV" version="21.3.5" type="github">
  <diagram id="WPpfDg1bzrY3eg69ICNu" name="第 1 页">
    <mxGraphModel dx="1853" dy="697" grid="1" gridSize="10" guides="1" tooltips="1" connect="1" arrows="1" fold="1" page="1" pageScale="1" pageWidth="827" pageHeight="1169" math="0" shadow="0">
      <root>
        <mxCell id="0" />
        <mxCell id="1" parent="0" />
        <mxCell id="1AdAnBlcqNMOqnZsu6fT-1" value="retek&lt;br&gt;oracle" style="shape=cylinder3;whiteSpace=wrap;html=1;boundedLbl=1;backgroundOutline=1;size=15;sketch=1;hachureGap=4;jiggle=2;curveFitting=1;fontFamily=Architects Daughter;fontSource=https%3A%2F%2Ffonts.googleapis.com%2Fcss%3Ffamily%3DArchitects%2BDaughter;fontSize=20;" parent="1" vertex="1">
          <mxGeometry x="50" y="150" width="60" height="80" as="geometry" />
        </mxCell>
        <mxCell id="1AdAnBlcqNMOqnZsu6fT-2" value="" style="endArrow=classic;html=1;rounded=0;sketch=1;hachureGap=4;jiggle=2;curveFitting=1;fontFamily=Architects Daughter;fontSource=https%3A%2F%2Ffonts.googleapis.com%2Fcss%3Ffamily%3DArchitects%2BDaughter;fontSize=16;" parent="1" edge="1">
          <mxGeometry width="50" height="50" relative="1" as="geometry">
            <mxPoint x="150" y="200" as="sourcePoint" />
            <mxPoint x="240" y="200" as="targetPoint" />
          </mxGeometry>
        </mxCell>
        <mxCell id="1AdAnBlcqNMOqnZsu6fT-3" value="Flink Oracle CDC flink jar job" style="text;html=1;strokeColor=none;fillColor=none;align=center;verticalAlign=middle;whiteSpace=wrap;rounded=0;fontSize=20;fontFamily=Architects Daughter;" parent="1" vertex="1">
          <mxGeometry x="150" y="120" width="110" height="30" as="geometry" />
        </mxCell>
        <mxCell id="1AdAnBlcqNMOqnZsu6fT-5" value="Kafka" style="rounded=0;whiteSpace=wrap;html=1;sketch=1;hachureGap=4;jiggle=2;curveFitting=1;fontFamily=Architects Daughter;fontSource=https%3A%2F%2Ffonts.googleapis.com%2Fcss%3Ffamily%3DArchitects%2BDaughter;fontSize=20;" parent="1" vertex="1">
          <mxGeometry x="310" y="170" width="120" height="60" as="geometry" />
        </mxCell>
        <mxCell id="1AdAnBlcqNMOqnZsu6fT-6" value="" style="endArrow=classic;html=1;rounded=0;sketch=1;hachureGap=4;jiggle=2;curveFitting=1;fontFamily=Architects Daughter;fontSource=https%3A%2F%2Ffonts.googleapis.com%2Fcss%3Ffamily%3DArchitects%2BDaughter;fontSize=16;" parent="1" edge="1">
          <mxGeometry width="50" height="50" relative="1" as="geometry">
            <mxPoint x="480" y="199.58" as="sourcePoint" />
            <mxPoint x="570" y="199.58" as="targetPoint" />
          </mxGeometry>
        </mxCell>
        <mxCell id="1AdAnBlcqNMOqnZsu6fT-7" value="MySQL" style="shape=cylinder3;whiteSpace=wrap;html=1;boundedLbl=1;backgroundOutline=1;size=15;sketch=1;hachureGap=4;jiggle=2;curveFitting=1;fontFamily=Architects Daughter;fontSource=https%3A%2F%2Ffonts.googleapis.com%2Fcss%3Ffamily%3DArchitects%2BDaughter;fontSize=20;" parent="1" vertex="1">
          <mxGeometry x="600" y="160" width="60" height="80" as="geometry" />
        </mxCell>
        <mxCell id="1AdAnBlcqNMOqnZsu6fT-8" value="Flink&amp;nbsp;" style="text;html=1;strokeColor=none;fillColor=none;align=center;verticalAlign=middle;whiteSpace=wrap;rounded=0;fontSize=20;fontFamily=Architects Daughter;" parent="1" vertex="1">
          <mxGeometry x="490" y="80" width="60" height="30" as="geometry" />
        </mxCell>
        <mxCell id="1AdAnBlcqNMOqnZsu6fT-11" value="WTCTH_RETEK_TO_MDM_EXTRACTION_JOB" style="text;html=1;strokeColor=none;fillColor=none;align=center;verticalAlign=middle;whiteSpace=wrap;rounded=0;fontSize=20;fontFamily=Architects Daughter;" parent="1" vertex="1">
          <mxGeometry x="260" y="320" width="60" height="30" as="geometry" />
        </mxCell>
        <mxCell id="apg3jHX-PJu5srdvaaqD-1" value="oracle" style="rounded=0;whiteSpace=wrap;html=1;sketch=1;hachureGap=4;jiggle=2;curveFitting=1;fontFamily=Architects Daughter;fontSource=https%3A%2F%2Ffonts.googleapis.com%2Fcss%3Ffamily%3DArchitects%2BDaughter;fontSize=20;" vertex="1" parent="1">
          <mxGeometry x="-80" y="610" width="120" height="60" as="geometry" />
        </mxCell>
        <mxCell id="apg3jHX-PJu5srdvaaqD-2" value="event table a&lt;br&gt;" style="rounded=0;whiteSpace=wrap;html=1;sketch=1;hachureGap=4;jiggle=2;curveFitting=1;fontFamily=Architects Daughter;fontSource=https%3A%2F%2Ffonts.googleapis.com%2Fcss%3Ffamily%3DArchitects%2BDaughter;fontSize=20;" vertex="1" parent="1">
          <mxGeometry x="340" y="560" width="210" height="60" as="geometry" />
        </mxCell>
        <mxCell id="apg3jHX-PJu5srdvaaqD-3" value="event table b" style="rounded=0;whiteSpace=wrap;html=1;sketch=1;hachureGap=4;jiggle=2;curveFitting=1;fontFamily=Architects Daughter;fontSource=https%3A%2F%2Ffonts.googleapis.com%2Fcss%3Ffamily%3DArchitects%2BDaughter;fontSize=20;" vertex="1" parent="1">
          <mxGeometry x="340" y="650" width="210" height="60" as="geometry" />
        </mxCell>
        <mxCell id="apg3jHX-PJu5srdvaaqD-4" value="logminer" style="rounded=0;whiteSpace=wrap;html=1;sketch=1;hachureGap=4;jiggle=2;curveFitting=1;fontFamily=Architects Daughter;fontSource=https%3A%2F%2Ffonts.googleapis.com%2Fcss%3Ffamily%3DArchitects%2BDaughter;fontSize=20;" vertex="1" parent="1">
          <mxGeometry x="110" y="610" width="120" height="60" as="geometry" />
        </mxCell>
        <mxCell id="apg3jHX-PJu5srdvaaqD-5" value="topic a" style="rounded=0;whiteSpace=wrap;html=1;sketch=1;hachureGap=4;jiggle=2;curveFitting=1;fontFamily=Architects Daughter;fontSource=https%3A%2F%2Ffonts.googleapis.com%2Fcss%3Ffamily%3DArchitects%2BDaughter;fontSize=20;" vertex="1" parent="1">
          <mxGeometry x="630" y="555" width="210" height="60" as="geometry" />
        </mxCell>
        <mxCell id="apg3jHX-PJu5srdvaaqD-6" value="topic b" style="rounded=0;whiteSpace=wrap;html=1;sketch=1;hachureGap=4;jiggle=2;curveFitting=1;fontFamily=Architects Daughter;fontSource=https%3A%2F%2Ffonts.googleapis.com%2Fcss%3Ffamily%3DArchitects%2BDaughter;fontSize=20;" vertex="1" parent="1">
          <mxGeometry x="630" y="660" width="210" height="60" as="geometry" />
        </mxCell>
        <mxCell id="apg3jHX-PJu5srdvaaqD-7" value="" style="endArrow=classic;html=1;rounded=0;sketch=1;hachureGap=4;jiggle=2;curveFitting=1;fontFamily=Architects Daughter;fontSource=https%3A%2F%2Ffonts.googleapis.com%2Fcss%3Ffamily%3DArchitects%2BDaughter;fontSize=16;" edge="1" parent="1">
          <mxGeometry width="50" height="50" relative="1" as="geometry">
            <mxPoint x="580" y="610" as="sourcePoint" />
            <mxPoint x="620" y="600" as="targetPoint" />
          </mxGeometry>
        </mxCell>
        <mxCell id="apg3jHX-PJu5srdvaaqD-8" value="" style="endArrow=classic;html=1;rounded=0;sketch=1;hachureGap=4;jiggle=2;curveFitting=1;fontFamily=Architects Daughter;fontSource=https%3A%2F%2Ffonts.googleapis.com%2Fcss%3Ffamily%3DArchitects%2BDaughter;fontSize=16;" edge="1" parent="1">
          <mxGeometry width="50" height="50" relative="1" as="geometry">
            <mxPoint x="570" y="700" as="sourcePoint" />
            <mxPoint x="620" y="690" as="targetPoint" />
          </mxGeometry>
        </mxCell>
        <mxCell id="apg3jHX-PJu5srdvaaqD-9" value="整库入kafka" style="text;html=1;strokeColor=none;fillColor=none;align=center;verticalAlign=middle;whiteSpace=wrap;rounded=0;fontSize=20;fontFamily=Architects Daughter;" vertex="1" parent="1">
          <mxGeometry x="40" y="470" width="180" height="30" as="geometry" />
        </mxCell>
        <mxCell id="apg3jHX-PJu5srdvaaqD-10" value="整库入湖" style="text;html=1;strokeColor=none;fillColor=none;align=center;verticalAlign=middle;whiteSpace=wrap;rounded=0;fontSize=20;fontFamily=Architects Daughter;" vertex="1" parent="1">
          <mxGeometry x="30" y="525" width="180" height="30" as="geometry" />
        </mxCell>
        <mxCell id="apg3jHX-PJu5srdvaaqD-11" value="table a -&amp;gt; topic a&lt;br&gt;table b -&amp;gt; topic b" style="text;html=1;strokeColor=none;fillColor=none;align=center;verticalAlign=middle;whiteSpace=wrap;rounded=0;fontSize=20;fontFamily=Architects Daughter;" vertex="1" parent="1">
          <mxGeometry x="384" y="450" width="176" height="30" as="geometry" />
        </mxCell>
        <mxCell id="apg3jHX-PJu5srdvaaqD-12" value="oracle" style="rounded=0;whiteSpace=wrap;html=1;sketch=1;hachureGap=4;jiggle=2;curveFitting=1;fontFamily=Architects Daughter;fontSource=https%3A%2F%2Ffonts.googleapis.com%2Fcss%3Ffamily%3DArchitects%2BDaughter;fontSize=20;" vertex="1" parent="1">
          <mxGeometry x="-75" y="840" width="120" height="60" as="geometry" />
        </mxCell>
        <mxCell id="apg3jHX-PJu5srdvaaqD-13" value="logminer" style="rounded=0;whiteSpace=wrap;html=1;sketch=1;hachureGap=4;jiggle=2;curveFitting=1;fontFamily=Architects Daughter;fontSource=https%3A%2F%2Ffonts.googleapis.com%2Fcss%3Ffamily%3DArchitects%2BDaughter;fontSize=20;" vertex="1" parent="1">
          <mxGeometry x="115" y="840" width="120" height="60" as="geometry" />
        </mxCell>
        <mxCell id="apg3jHX-PJu5srdvaaqD-14" value="event table a&lt;br&gt;" style="rounded=0;whiteSpace=wrap;html=1;sketch=1;hachureGap=4;jiggle=2;curveFitting=1;fontFamily=Architects Daughter;fontSource=https%3A%2F%2Ffonts.googleapis.com%2Fcss%3Ffamily%3DArchitects%2BDaughter;fontSize=20;" vertex="1" parent="1">
          <mxGeometry x="290" y="830" width="210" height="60" as="geometry" />
        </mxCell>
        <mxCell id="apg3jHX-PJu5srdvaaqD-15" value="topic a" style="rounded=0;whiteSpace=wrap;html=1;sketch=1;hachureGap=4;jiggle=2;curveFitting=1;fontFamily=Architects Daughter;fontSource=https%3A%2F%2Ffonts.googleapis.com%2Fcss%3Ffamily%3DArchitects%2BDaughter;fontSize=20;" vertex="1" parent="1">
          <mxGeometry x="580" y="830" width="210" height="60" as="geometry" />
        </mxCell>
        <mxCell id="apg3jHX-PJu5srdvaaqD-16" value="oracle" style="rounded=0;whiteSpace=wrap;html=1;sketch=1;hachureGap=4;jiggle=2;curveFitting=1;fontFamily=Architects Daughter;fontSource=https%3A%2F%2Ffonts.googleapis.com%2Fcss%3Ffamily%3DArchitects%2BDaughter;fontSize=20;" vertex="1" parent="1">
          <mxGeometry x="-75" y="960" width="120" height="60" as="geometry" />
        </mxCell>
        <mxCell id="apg3jHX-PJu5srdvaaqD-17" value="logminer" style="rounded=0;whiteSpace=wrap;html=1;sketch=1;hachureGap=4;jiggle=2;curveFitting=1;fontFamily=Architects Daughter;fontSource=https%3A%2F%2Ffonts.googleapis.com%2Fcss%3Ffamily%3DArchitects%2BDaughter;fontSize=20;" vertex="1" parent="1">
          <mxGeometry x="115" y="960" width="120" height="60" as="geometry" />
        </mxCell>
        <mxCell id="apg3jHX-PJu5srdvaaqD-18" value="event table b" style="rounded=0;whiteSpace=wrap;html=1;sketch=1;hachureGap=4;jiggle=2;curveFitting=1;fontFamily=Architects Daughter;fontSource=https%3A%2F%2Ffonts.googleapis.com%2Fcss%3Ffamily%3DArchitects%2BDaughter;fontSize=20;" vertex="1" parent="1">
          <mxGeometry x="290" y="950" width="210" height="60" as="geometry" />
        </mxCell>
        <mxCell id="apg3jHX-PJu5srdvaaqD-19" value="topic a" style="rounded=0;whiteSpace=wrap;html=1;sketch=1;hachureGap=4;jiggle=2;curveFitting=1;fontFamily=Architects Daughter;fontSource=https%3A%2F%2Ffonts.googleapis.com%2Fcss%3Ffamily%3DArchitects%2BDaughter;fontSize=20;" vertex="1" parent="1">
          <mxGeometry x="580" y="950" width="210" height="60" as="geometry" />
        </mxCell>
        <mxCell id="apg3jHX-PJu5srdvaaqD-20" value="job1" style="text;html=1;strokeColor=none;fillColor=none;align=center;verticalAlign=middle;whiteSpace=wrap;rounded=0;fontSize=20;fontFamily=Architects Daughter;" vertex="1" parent="1">
          <mxGeometry x="-190" y="860" width="60" height="30" as="geometry" />
        </mxCell>
        <mxCell id="apg3jHX-PJu5srdvaaqD-25" value="job2" style="text;html=1;strokeColor=none;fillColor=none;align=center;verticalAlign=middle;whiteSpace=wrap;rounded=0;fontSize=20;fontFamily=Architects Daughter;" vertex="1" parent="1">
          <mxGeometry x="-190" y="975" width="60" height="30" as="geometry" />
        </mxCell>
        <mxCell id="apg3jHX-PJu5srdvaaqD-26" value="redo log: table a, + tableb" style="text;html=1;strokeColor=none;fillColor=none;align=center;verticalAlign=middle;whiteSpace=wrap;rounded=0;fontSize=20;fontFamily=Architects Daughter;" vertex="1" parent="1">
          <mxGeometry x="30" y="780" width="280" height="30" as="geometry" />
        </mxCell>
        <mxCell id="apg3jHX-PJu5srdvaaqD-27" value="redo log: table a, + tableb" style="text;html=1;strokeColor=none;fillColor=none;align=center;verticalAlign=middle;whiteSpace=wrap;rounded=0;fontSize=20;fontFamily=Architects Daughter;" vertex="1" parent="1">
          <mxGeometry x="10" y="920" width="280" height="30" as="geometry" />
        </mxCell>
        <mxCell id="apg3jHX-PJu5srdvaaqD-28" value="rule" style="rounded=0;whiteSpace=wrap;html=1;sketch=1;hachureGap=4;jiggle=2;curveFitting=1;fontFamily=Architects Daughter;fontSource=https%3A%2F%2Ffonts.googleapis.com%2Fcss%3Ffamily%3DArchitects%2BDaughter;fontSize=20;" vertex="1" parent="1">
          <mxGeometry x="-250" y="1190" width="120" height="60" as="geometry" />
        </mxCell>
        <mxCell id="apg3jHX-PJu5srdvaaqD-37" style="edgeStyle=orthogonalEdgeStyle;rounded=0;sketch=1;hachureGap=4;jiggle=2;curveFitting=1;orthogonalLoop=1;jettySize=auto;html=1;entryX=1;entryY=0.5;entryDx=0;entryDy=0;fontFamily=Architects Daughter;fontSource=https%3A%2F%2Ffonts.googleapis.com%2Fcss%3Ffamily%3DArchitects%2BDaughter;fontSize=16;" edge="1" parent="1" source="apg3jHX-PJu5srdvaaqD-29" target="apg3jHX-PJu5srdvaaqD-28">
          <mxGeometry relative="1" as="geometry" />
        </mxCell>
        <mxCell id="apg3jHX-PJu5srdvaaqD-29" value="criteria-a" style="rounded=0;whiteSpace=wrap;html=1;sketch=1;hachureGap=4;jiggle=2;curveFitting=1;fontFamily=Architects Daughter;fontSource=https%3A%2F%2Ffonts.googleapis.com%2Fcss%3Ffamily%3DArchitects%2BDaughter;fontSize=20;" vertex="1" parent="1">
          <mxGeometry x="-30" y="1080" width="120" height="40" as="geometry" />
        </mxCell>
        <mxCell id="apg3jHX-PJu5srdvaaqD-30" value="sub-rule" style="rounded=0;whiteSpace=wrap;html=1;sketch=1;hachureGap=4;jiggle=2;curveFitting=1;fontFamily=Architects Daughter;fontSource=https%3A%2F%2Ffonts.googleapis.com%2Fcss%3Ffamily%3DArchitects%2BDaughter;fontSize=20;" vertex="1" parent="1">
          <mxGeometry x="-30" y="1230" width="120" height="40" as="geometry" />
        </mxCell>
        <mxCell id="apg3jHX-PJu5srdvaaqD-38" style="edgeStyle=orthogonalEdgeStyle;rounded=0;sketch=1;hachureGap=4;jiggle=2;curveFitting=1;orthogonalLoop=1;jettySize=auto;html=1;entryX=1;entryY=0.5;entryDx=0;entryDy=0;fontFamily=Architects Daughter;fontSource=https%3A%2F%2Ffonts.googleapis.com%2Fcss%3Ffamily%3DArchitects%2BDaughter;fontSize=16;" edge="1" parent="1" source="apg3jHX-PJu5srdvaaqD-31" target="apg3jHX-PJu5srdvaaqD-28">
          <mxGeometry relative="1" as="geometry" />
        </mxCell>
        <mxCell id="apg3jHX-PJu5srdvaaqD-31" value="criteria-b" style="rounded=0;whiteSpace=wrap;html=1;sketch=1;hachureGap=4;jiggle=2;curveFitting=1;fontFamily=Architects Daughter;fontSource=https%3A%2F%2Ffonts.googleapis.com%2Fcss%3Ffamily%3DArchitects%2BDaughter;fontSize=20;" vertex="1" parent="1">
          <mxGeometry x="-30" y="1150" width="120" height="40" as="geometry" />
        </mxCell>
        <mxCell id="apg3jHX-PJu5srdvaaqD-34" style="edgeStyle=orthogonalEdgeStyle;rounded=0;sketch=1;hachureGap=4;jiggle=2;curveFitting=1;orthogonalLoop=1;jettySize=auto;html=1;entryX=1;entryY=0.5;entryDx=0;entryDy=0;fontFamily=Architects Daughter;fontSource=https%3A%2F%2Ffonts.googleapis.com%2Fcss%3Ffamily%3DArchitects%2BDaughter;fontSize=16;" edge="1" parent="1" source="apg3jHX-PJu5srdvaaqD-32" target="apg3jHX-PJu5srdvaaqD-30">
          <mxGeometry relative="1" as="geometry" />
        </mxCell>
        <mxCell id="apg3jHX-PJu5srdvaaqD-32" value="sub-criteria-a" style="rounded=0;whiteSpace=wrap;html=1;sketch=1;hachureGap=4;jiggle=2;curveFitting=1;fontFamily=Architects Daughter;fontSource=https%3A%2F%2Ffonts.googleapis.com%2Fcss%3Ffamily%3DArchitects%2BDaughter;fontSize=20;" vertex="1" parent="1">
          <mxGeometry x="160" y="1190" width="120" height="40" as="geometry" />
        </mxCell>
        <mxCell id="apg3jHX-PJu5srdvaaqD-35" style="edgeStyle=orthogonalEdgeStyle;rounded=0;sketch=1;hachureGap=4;jiggle=2;curveFitting=1;orthogonalLoop=1;jettySize=auto;html=1;entryX=1;entryY=0.5;entryDx=0;entryDy=0;fontFamily=Architects Daughter;fontSource=https%3A%2F%2Ffonts.googleapis.com%2Fcss%3Ffamily%3DArchitects%2BDaughter;fontSize=16;" edge="1" parent="1" source="apg3jHX-PJu5srdvaaqD-33" target="apg3jHX-PJu5srdvaaqD-30">
          <mxGeometry relative="1" as="geometry" />
        </mxCell>
        <mxCell id="apg3jHX-PJu5srdvaaqD-33" value="sub-criteria-b" style="rounded=0;whiteSpace=wrap;html=1;sketch=1;hachureGap=4;jiggle=2;curveFitting=1;fontFamily=Architects Daughter;fontSource=https%3A%2F%2Ffonts.googleapis.com%2Fcss%3Ffamily%3DArchitects%2BDaughter;fontSize=20;" vertex="1" parent="1">
          <mxGeometry x="160" y="1260" width="120" height="40" as="geometry" />
        </mxCell>
        <mxCell id="apg3jHX-PJu5srdvaaqD-36" value="sql_2_1" style="text;html=1;strokeColor=none;fillColor=none;align=center;verticalAlign=middle;whiteSpace=wrap;rounded=0;fontSize=20;fontFamily=Architects Daughter;" vertex="1" parent="1">
          <mxGeometry x="130" y="1230" width="60" height="30" as="geometry" />
        </mxCell>
        <mxCell id="apg3jHX-PJu5srdvaaqD-39" value="sql_1" style="text;html=1;strokeColor=none;fillColor=none;align=center;verticalAlign=middle;whiteSpace=wrap;rounded=0;fontSize=20;fontFamily=Architects Daughter;" vertex="1" parent="1">
          <mxGeometry x="-75" y="1120" width="60" height="30" as="geometry" />
        </mxCell>
        <mxCell id="apg3jHX-PJu5srdvaaqD-40" value="sql_2" style="text;html=1;strokeColor=none;fillColor=none;align=center;verticalAlign=middle;whiteSpace=wrap;rounded=0;fontSize=20;fontFamily=Architects Daughter;" vertex="1" parent="1">
          <mxGeometry x="-90" y="1235" width="60" height="30" as="geometry" />
        </mxCell>
        <mxCell id="apg3jHX-PJu5srdvaaqD-51" style="edgeStyle=orthogonalEdgeStyle;rounded=0;sketch=1;hachureGap=4;jiggle=2;curveFitting=1;orthogonalLoop=1;jettySize=auto;html=1;entryX=0.5;entryY=1;entryDx=0;entryDy=0;fontFamily=Architects Daughter;fontSource=https%3A%2F%2Ffonts.googleapis.com%2Fcss%3Ffamily%3DArchitects%2BDaughter;fontSize=16;" edge="1" parent="1" source="apg3jHX-PJu5srdvaaqD-44" target="apg3jHX-PJu5srdvaaqD-30">
          <mxGeometry relative="1" as="geometry" />
        </mxCell>
        <mxCell id="apg3jHX-PJu5srdvaaqD-44" value="sub-rule" style="rounded=0;whiteSpace=wrap;html=1;sketch=1;hachureGap=4;jiggle=2;curveFitting=1;fontFamily=Architects Daughter;fontSource=https%3A%2F%2Ffonts.googleapis.com%2Fcss%3Ffamily%3DArchitects%2BDaughter;fontSize=20;" vertex="1" parent="1">
          <mxGeometry x="160" y="1350" width="120" height="40" as="geometry" />
        </mxCell>
        <mxCell id="apg3jHX-PJu5srdvaaqD-47" style="edgeStyle=orthogonalEdgeStyle;rounded=0;sketch=1;hachureGap=4;jiggle=2;curveFitting=1;orthogonalLoop=1;jettySize=auto;html=1;entryX=1;entryY=0.5;entryDx=0;entryDy=0;fontFamily=Architects Daughter;fontSource=https%3A%2F%2Ffonts.googleapis.com%2Fcss%3Ffamily%3DArchitects%2BDaughter;fontSize=16;" edge="1" parent="1" source="apg3jHX-PJu5srdvaaqD-45" target="apg3jHX-PJu5srdvaaqD-44">
          <mxGeometry relative="1" as="geometry" />
        </mxCell>
        <mxCell id="apg3jHX-PJu5srdvaaqD-45" value="sub-criteria-a" style="rounded=0;whiteSpace=wrap;html=1;sketch=1;hachureGap=4;jiggle=2;curveFitting=1;fontFamily=Architects Daughter;fontSource=https%3A%2F%2Ffonts.googleapis.com%2Fcss%3Ffamily%3DArchitects%2BDaughter;fontSize=20;" vertex="1" parent="1">
          <mxGeometry x="340" y="1310" width="120" height="40" as="geometry" />
        </mxCell>
        <mxCell id="apg3jHX-PJu5srdvaaqD-50" style="edgeStyle=orthogonalEdgeStyle;rounded=0;sketch=1;hachureGap=4;jiggle=2;curveFitting=1;orthogonalLoop=1;jettySize=auto;html=1;entryX=1;entryY=0.5;entryDx=0;entryDy=0;fontFamily=Architects Daughter;fontSource=https%3A%2F%2Ffonts.googleapis.com%2Fcss%3Ffamily%3DArchitects%2BDaughter;fontSize=16;" edge="1" parent="1" source="apg3jHX-PJu5srdvaaqD-46" target="apg3jHX-PJu5srdvaaqD-44">
          <mxGeometry relative="1" as="geometry" />
        </mxCell>
        <mxCell id="apg3jHX-PJu5srdvaaqD-46" value="sub-criteria-b" style="rounded=0;whiteSpace=wrap;html=1;sketch=1;hachureGap=4;jiggle=2;curveFitting=1;fontFamily=Architects Daughter;fontSource=https%3A%2F%2Ffonts.googleapis.com%2Fcss%3Ffamily%3DArchitects%2BDaughter;fontSize=20;" vertex="1" parent="1">
          <mxGeometry x="340" y="1380" width="120" height="40" as="geometry" />
        </mxCell>
        <mxCell id="apg3jHX-PJu5srdvaaqD-52" value="sql_2_2" style="text;html=1;strokeColor=none;fillColor=none;align=center;verticalAlign=middle;whiteSpace=wrap;rounded=0;fontSize=20;fontFamily=Architects Daughter;" vertex="1" parent="1">
          <mxGeometry x="80" y="1330" width="60" height="30" as="geometry" />
        </mxCell>
        <mxCell id="apg3jHX-PJu5srdvaaqD-53" value="(sql_1 and (sql_2_1 or sql_2_2))" style="text;html=1;strokeColor=none;fillColor=none;align=center;verticalAlign=middle;whiteSpace=wrap;rounded=0;fontSize=20;fontFamily=Architects Daughter;" vertex="1" parent="1">
          <mxGeometry x="-300" y="1300" width="300" height="30" as="geometry" />
        </mxCell>
        <mxCell id="apg3jHX-PJu5srdvaaqD-61" style="edgeStyle=orthogonalEdgeStyle;rounded=0;sketch=1;hachureGap=4;jiggle=2;curveFitting=1;orthogonalLoop=1;jettySize=auto;html=1;entryX=0;entryY=0.65;entryDx=0;entryDy=0;entryPerimeter=0;fontFamily=Architects Daughter;fontSource=https%3A%2F%2Ffonts.googleapis.com%2Fcss%3Ffamily%3DArchitects%2BDaughter;fontSize=16;" edge="1" parent="1" source="apg3jHX-PJu5srdvaaqD-57" target="apg3jHX-PJu5srdvaaqD-58">
          <mxGeometry relative="1" as="geometry" />
        </mxCell>
        <mxCell id="apg3jHX-PJu5srdvaaqD-62" style="edgeStyle=orthogonalEdgeStyle;rounded=0;sketch=1;hachureGap=4;jiggle=2;curveFitting=1;orthogonalLoop=1;jettySize=auto;html=1;entryX=0;entryY=0.5;entryDx=0;entryDy=0;fontFamily=Architects Daughter;fontSource=https%3A%2F%2Ffonts.googleapis.com%2Fcss%3Ffamily%3DArchitects%2BDaughter;fontSize=16;" edge="1" parent="1" source="apg3jHX-PJu5srdvaaqD-57" target="apg3jHX-PJu5srdvaaqD-59">
          <mxGeometry relative="1" as="geometry" />
        </mxCell>
        <mxCell id="apg3jHX-PJu5srdvaaqD-63" style="edgeStyle=orthogonalEdgeStyle;rounded=0;sketch=1;hachureGap=4;jiggle=2;curveFitting=1;orthogonalLoop=1;jettySize=auto;html=1;entryX=0;entryY=0.5;entryDx=0;entryDy=0;fontFamily=Architects Daughter;fontSource=https%3A%2F%2Ffonts.googleapis.com%2Fcss%3Ffamily%3DArchitects%2BDaughter;fontSize=16;" edge="1" parent="1" source="apg3jHX-PJu5srdvaaqD-57" target="apg3jHX-PJu5srdvaaqD-60">
          <mxGeometry relative="1" as="geometry" />
        </mxCell>
        <mxCell id="apg3jHX-PJu5srdvaaqD-57" value="root rule" style="ellipse;whiteSpace=wrap;html=1;hachureGap=4;fontFamily=Architects Daughter;fontSource=https%3A%2F%2Ffonts.googleapis.com%2Fcss%3Ffamily%3DArchitects%2BDaughter;fontSize=20;" vertex="1" parent="1">
          <mxGeometry x="-400" y="1810" width="120" height="80" as="geometry" />
        </mxCell>
        <mxCell id="apg3jHX-PJu5srdvaaqD-68" style="edgeStyle=orthogonalEdgeStyle;rounded=0;sketch=1;hachureGap=4;jiggle=2;curveFitting=1;orthogonalLoop=1;jettySize=auto;html=1;entryX=0;entryY=0.5;entryDx=0;entryDy=0;fontFamily=Architects Daughter;fontSource=https%3A%2F%2Ffonts.googleapis.com%2Fcss%3Ffamily%3DArchitects%2BDaughter;fontSize=16;" edge="1" parent="1" source="apg3jHX-PJu5srdvaaqD-58" target="apg3jHX-PJu5srdvaaqD-65">
          <mxGeometry relative="1" as="geometry" />
        </mxCell>
        <mxCell id="apg3jHX-PJu5srdvaaqD-69" style="edgeStyle=orthogonalEdgeStyle;rounded=0;sketch=1;hachureGap=4;jiggle=2;curveFitting=1;orthogonalLoop=1;jettySize=auto;html=1;fontFamily=Architects Daughter;fontSource=https%3A%2F%2Ffonts.googleapis.com%2Fcss%3Ffamily%3DArchitects%2BDaughter;fontSize=16;" edge="1" parent="1" source="apg3jHX-PJu5srdvaaqD-58" target="apg3jHX-PJu5srdvaaqD-66">
          <mxGeometry relative="1" as="geometry" />
        </mxCell>
        <mxCell id="apg3jHX-PJu5srdvaaqD-70" style="edgeStyle=orthogonalEdgeStyle;rounded=0;sketch=1;hachureGap=4;jiggle=2;curveFitting=1;orthogonalLoop=1;jettySize=auto;html=1;entryX=0;entryY=0.5;entryDx=0;entryDy=0;fontFamily=Architects Daughter;fontSource=https%3A%2F%2Ffonts.googleapis.com%2Fcss%3Ffamily%3DArchitects%2BDaughter;fontSize=16;" edge="1" parent="1" source="apg3jHX-PJu5srdvaaqD-58" target="apg3jHX-PJu5srdvaaqD-67">
          <mxGeometry relative="1" as="geometry" />
        </mxCell>
        <mxCell id="apg3jHX-PJu5srdvaaqD-58" value="rule_1" style="ellipse;whiteSpace=wrap;html=1;hachureGap=4;fontFamily=Architects Daughter;fontSource=https%3A%2F%2Ffonts.googleapis.com%2Fcss%3Ffamily%3DArchitects%2BDaughter;fontSize=20;" vertex="1" parent="1">
          <mxGeometry x="-110" y="1670" width="120" height="80" as="geometry" />
        </mxCell>
        <mxCell id="apg3jHX-PJu5srdvaaqD-74" style="edgeStyle=orthogonalEdgeStyle;rounded=0;sketch=1;hachureGap=4;jiggle=2;curveFitting=1;orthogonalLoop=1;jettySize=auto;html=1;entryX=0;entryY=0.5;entryDx=0;entryDy=0;fontFamily=Architects Daughter;fontSource=https%3A%2F%2Ffonts.googleapis.com%2Fcss%3Ffamily%3DArchitects%2BDaughter;fontSize=16;" edge="1" parent="1" source="apg3jHX-PJu5srdvaaqD-59" target="apg3jHX-PJu5srdvaaqD-72">
          <mxGeometry relative="1" as="geometry" />
        </mxCell>
        <mxCell id="apg3jHX-PJu5srdvaaqD-75" style="edgeStyle=orthogonalEdgeStyle;rounded=0;sketch=1;hachureGap=4;jiggle=2;curveFitting=1;orthogonalLoop=1;jettySize=auto;html=1;entryX=-0.017;entryY=0.588;entryDx=0;entryDy=0;entryPerimeter=0;fontFamily=Architects Daughter;fontSource=https%3A%2F%2Ffonts.googleapis.com%2Fcss%3Ffamily%3DArchitects%2BDaughter;fontSize=16;" edge="1" parent="1" source="apg3jHX-PJu5srdvaaqD-59" target="apg3jHX-PJu5srdvaaqD-73">
          <mxGeometry relative="1" as="geometry" />
        </mxCell>
        <mxCell id="apg3jHX-PJu5srdvaaqD-59" value="rule_2" style="ellipse;whiteSpace=wrap;html=1;hachureGap=4;fontFamily=Architects Daughter;fontSource=https%3A%2F%2Ffonts.googleapis.com%2Fcss%3Ffamily%3DArchitects%2BDaughter;fontSize=20;" vertex="1" parent="1">
          <mxGeometry x="-110" y="1920" width="120" height="80" as="geometry" />
        </mxCell>
        <mxCell id="apg3jHX-PJu5srdvaaqD-79" style="edgeStyle=orthogonalEdgeStyle;rounded=0;sketch=1;hachureGap=4;jiggle=2;curveFitting=1;orthogonalLoop=1;jettySize=auto;html=1;entryX=0;entryY=0.5;entryDx=0;entryDy=0;fontFamily=Architects Daughter;fontSource=https%3A%2F%2Ffonts.googleapis.com%2Fcss%3Ffamily%3DArchitects%2BDaughter;fontSize=16;" edge="1" parent="1" source="apg3jHX-PJu5srdvaaqD-60" target="apg3jHX-PJu5srdvaaqD-77">
          <mxGeometry relative="1" as="geometry" />
        </mxCell>
        <mxCell id="apg3jHX-PJu5srdvaaqD-80" style="edgeStyle=orthogonalEdgeStyle;rounded=0;sketch=1;hachureGap=4;jiggle=2;curveFitting=1;orthogonalLoop=1;jettySize=auto;html=1;entryX=0;entryY=0.5;entryDx=0;entryDy=0;fontFamily=Architects Daughter;fontSource=https%3A%2F%2Ffonts.googleapis.com%2Fcss%3Ffamily%3DArchitects%2BDaughter;fontSize=16;" edge="1" parent="1" source="apg3jHX-PJu5srdvaaqD-60" target="apg3jHX-PJu5srdvaaqD-78">
          <mxGeometry relative="1" as="geometry" />
        </mxCell>
        <mxCell id="apg3jHX-PJu5srdvaaqD-60" value="rule_3" style="ellipse;whiteSpace=wrap;html=1;hachureGap=4;fontFamily=Architects Daughter;fontSource=https%3A%2F%2Ffonts.googleapis.com%2Fcss%3Ffamily%3DArchitects%2BDaughter;fontSize=20;" vertex="1" parent="1">
          <mxGeometry x="-110" y="2140" width="120" height="80" as="geometry" />
        </mxCell>
        <mxCell id="apg3jHX-PJu5srdvaaqD-64" value="Or" style="text;html=1;strokeColor=none;fillColor=none;align=center;verticalAlign=middle;whiteSpace=wrap;rounded=0;fontSize=20;fontFamily=Architects Daughter;" vertex="1" parent="1">
          <mxGeometry x="-270" y="1804" width="60" height="30" as="geometry" />
        </mxCell>
        <mxCell id="apg3jHX-PJu5srdvaaqD-65" value="criteria_1" style="ellipse;whiteSpace=wrap;html=1;hachureGap=4;fontFamily=Architects Daughter;fontSource=https%3A%2F%2Ffonts.googleapis.com%2Fcss%3Ffamily%3DArchitects%2BDaughter;fontSize=20;" vertex="1" parent="1">
          <mxGeometry x="110" y="1530" width="120" height="80" as="geometry" />
        </mxCell>
        <mxCell id="apg3jHX-PJu5srdvaaqD-66" value="criteria_1_2" style="ellipse;whiteSpace=wrap;html=1;hachureGap=4;fontFamily=Architects Daughter;fontSource=https%3A%2F%2Ffonts.googleapis.com%2Fcss%3Ffamily%3DArchitects%2BDaughter;fontSize=20;" vertex="1" parent="1">
          <mxGeometry x="110" y="1640" width="120" height="80" as="geometry" />
        </mxCell>
        <mxCell id="apg3jHX-PJu5srdvaaqD-67" value="criteria_1_3" style="ellipse;whiteSpace=wrap;html=1;hachureGap=4;fontFamily=Architects Daughter;fontSource=https%3A%2F%2Ffonts.googleapis.com%2Fcss%3Ffamily%3DArchitects%2BDaughter;fontSize=20;" vertex="1" parent="1">
          <mxGeometry x="113" y="1750" width="120" height="80" as="geometry" />
        </mxCell>
        <mxCell id="apg3jHX-PJu5srdvaaqD-71" value="and" style="text;html=1;strokeColor=none;fillColor=none;align=center;verticalAlign=middle;whiteSpace=wrap;rounded=0;fontSize=20;fontFamily=Architects Daughter;" vertex="1" parent="1">
          <mxGeometry x="10" y="1670" width="60" height="30" as="geometry" />
        </mxCell>
        <mxCell id="apg3jHX-PJu5srdvaaqD-72" value="criteria_2_1" style="ellipse;whiteSpace=wrap;html=1;hachureGap=4;fontFamily=Architects Daughter;fontSource=https%3A%2F%2Ffonts.googleapis.com%2Fcss%3Ffamily%3DArchitects%2BDaughter;fontSize=20;" vertex="1" parent="1">
          <mxGeometry x="90" y="1870" width="120" height="80" as="geometry" />
        </mxCell>
        <mxCell id="apg3jHX-PJu5srdvaaqD-73" value="criteria_2_2" style="ellipse;whiteSpace=wrap;html=1;hachureGap=4;fontFamily=Architects Daughter;fontSource=https%3A%2F%2Ffonts.googleapis.com%2Fcss%3Ffamily%3DArchitects%2BDaughter;fontSize=20;" vertex="1" parent="1">
          <mxGeometry x="90" y="1980" width="120" height="80" as="geometry" />
        </mxCell>
        <mxCell id="apg3jHX-PJu5srdvaaqD-76" value="or" style="text;html=1;strokeColor=none;fillColor=none;align=center;verticalAlign=middle;whiteSpace=wrap;rounded=0;fontSize=20;fontFamily=Architects Daughter;" vertex="1" parent="1">
          <mxGeometry y="1910" width="60" height="30" as="geometry" />
        </mxCell>
        <mxCell id="apg3jHX-PJu5srdvaaqD-77" value="criteria_3_1" style="ellipse;whiteSpace=wrap;html=1;hachureGap=4;fontFamily=Architects Daughter;fontSource=https%3A%2F%2Ffonts.googleapis.com%2Fcss%3Ffamily%3DArchitects%2BDaughter;fontSize=20;" vertex="1" parent="1">
          <mxGeometry x="100" y="2110" width="120" height="80" as="geometry" />
        </mxCell>
        <mxCell id="apg3jHX-PJu5srdvaaqD-78" value="criteria_3_2" style="ellipse;whiteSpace=wrap;html=1;hachureGap=4;fontFamily=Architects Daughter;fontSource=https%3A%2F%2Ffonts.googleapis.com%2Fcss%3Ffamily%3DArchitects%2BDaughter;fontSize=20;" vertex="1" parent="1">
          <mxGeometry x="100" y="2220" width="120" height="80" as="geometry" />
        </mxCell>
        <mxCell id="apg3jHX-PJu5srdvaaqD-81" value="and" style="text;html=1;strokeColor=none;fillColor=none;align=center;verticalAlign=middle;whiteSpace=wrap;rounded=0;fontSize=20;fontFamily=Architects Daughter;" vertex="1" parent="1">
          <mxGeometry y="2130" width="60" height="30" as="geometry" />
        </mxCell>
        <mxCell id="apg3jHX-PJu5srdvaaqD-82" value="Text" style="text;html=1;strokeColor=none;fillColor=none;align=center;verticalAlign=middle;whiteSpace=wrap;rounded=0;fontSize=20;fontFamily=Architects Daughter;" vertex="1" parent="1">
          <mxGeometry x="-770" y="1834" width="60" height="30" as="geometry" />
        </mxCell>
        <mxCell id="apg3jHX-PJu5srdvaaqD-84" style="edgeStyle=orthogonalEdgeStyle;rounded=0;sketch=1;hachureGap=4;jiggle=2;curveFitting=1;orthogonalLoop=1;jettySize=auto;html=1;entryX=0;entryY=0.5;entryDx=0;entryDy=0;fontFamily=Architects Daughter;fontSource=https%3A%2F%2Ffonts.googleapis.com%2Fcss%3Ffamily%3DArchitects%2BDaughter;fontSize=16;" edge="1" parent="1" source="apg3jHX-PJu5srdvaaqD-87" target="apg3jHX-PJu5srdvaaqD-88">
          <mxGeometry relative="1" as="geometry" />
        </mxCell>
        <mxCell id="apg3jHX-PJu5srdvaaqD-85" style="edgeStyle=orthogonalEdgeStyle;rounded=0;sketch=1;hachureGap=4;jiggle=2;curveFitting=1;orthogonalLoop=1;jettySize=auto;html=1;fontFamily=Architects Daughter;fontSource=https%3A%2F%2Ffonts.googleapis.com%2Fcss%3Ffamily%3DArchitects%2BDaughter;fontSize=16;" edge="1" parent="1" source="apg3jHX-PJu5srdvaaqD-87" target="apg3jHX-PJu5srdvaaqD-89">
          <mxGeometry relative="1" as="geometry" />
        </mxCell>
        <mxCell id="apg3jHX-PJu5srdvaaqD-86" style="edgeStyle=orthogonalEdgeStyle;rounded=0;sketch=1;hachureGap=4;jiggle=2;curveFitting=1;orthogonalLoop=1;jettySize=auto;html=1;entryX=0;entryY=0.5;entryDx=0;entryDy=0;fontFamily=Architects Daughter;fontSource=https%3A%2F%2Ffonts.googleapis.com%2Fcss%3Ffamily%3DArchitects%2BDaughter;fontSize=16;" edge="1" parent="1" source="apg3jHX-PJu5srdvaaqD-87" target="apg3jHX-PJu5srdvaaqD-90">
          <mxGeometry relative="1" as="geometry" />
        </mxCell>
        <mxCell id="apg3jHX-PJu5srdvaaqD-87" value="rule_1" style="ellipse;whiteSpace=wrap;html=1;hachureGap=4;fontFamily=Architects Daughter;fontSource=https%3A%2F%2Ffonts.googleapis.com%2Fcss%3Ffamily%3DArchitects%2BDaughter;fontSize=20;" vertex="1" parent="1">
          <mxGeometry x="430" y="1675" width="120" height="80" as="geometry" />
        </mxCell>
        <mxCell id="apg3jHX-PJu5srdvaaqD-88" value="criteria_1" style="ellipse;whiteSpace=wrap;html=1;hachureGap=4;fontFamily=Architects Daughter;fontSource=https%3A%2F%2Ffonts.googleapis.com%2Fcss%3Ffamily%3DArchitects%2BDaughter;fontSize=20;" vertex="1" parent="1">
          <mxGeometry x="650" y="1535" width="120" height="80" as="geometry" />
        </mxCell>
        <mxCell id="apg3jHX-PJu5srdvaaqD-89" value="criteria_1_2" style="ellipse;whiteSpace=wrap;html=1;hachureGap=4;fontFamily=Architects Daughter;fontSource=https%3A%2F%2Ffonts.googleapis.com%2Fcss%3Ffamily%3DArchitects%2BDaughter;fontSize=20;" vertex="1" parent="1">
          <mxGeometry x="650" y="1645" width="120" height="80" as="geometry" />
        </mxCell>
        <mxCell id="apg3jHX-PJu5srdvaaqD-90" value="criteria_1_3" style="ellipse;whiteSpace=wrap;html=1;hachureGap=4;fontFamily=Architects Daughter;fontSource=https%3A%2F%2Ffonts.googleapis.com%2Fcss%3Ffamily%3DArchitects%2BDaughter;fontSize=20;" vertex="1" parent="1">
          <mxGeometry x="653" y="1755" width="120" height="80" as="geometry" />
        </mxCell>
        <mxCell id="apg3jHX-PJu5srdvaaqD-91" value="and" style="text;html=1;strokeColor=none;fillColor=none;align=center;verticalAlign=middle;whiteSpace=wrap;rounded=0;fontSize=20;fontFamily=Architects Daughter;" vertex="1" parent="1">
          <mxGeometry x="550" y="1675" width="60" height="30" as="geometry" />
        </mxCell>
        <mxCell id="apg3jHX-PJu5srdvaaqD-92" style="edgeStyle=orthogonalEdgeStyle;rounded=0;sketch=1;hachureGap=4;jiggle=2;curveFitting=1;orthogonalLoop=1;jettySize=auto;html=1;entryX=0;entryY=0.65;entryDx=0;entryDy=0;entryPerimeter=0;fontFamily=Architects Daughter;fontSource=https%3A%2F%2Ffonts.googleapis.com%2Fcss%3Ffamily%3DArchitects%2BDaughter;fontSize=16;" edge="1" parent="1" source="apg3jHX-PJu5srdvaaqD-95" target="apg3jHX-PJu5srdvaaqD-96">
          <mxGeometry relative="1" as="geometry" />
        </mxCell>
        <mxCell id="apg3jHX-PJu5srdvaaqD-93" style="edgeStyle=orthogonalEdgeStyle;rounded=0;sketch=1;hachureGap=4;jiggle=2;curveFitting=1;orthogonalLoop=1;jettySize=auto;html=1;entryX=0;entryY=0.5;entryDx=0;entryDy=0;fontFamily=Architects Daughter;fontSource=https%3A%2F%2Ffonts.googleapis.com%2Fcss%3Ffamily%3DArchitects%2BDaughter;fontSize=16;" edge="1" parent="1" source="apg3jHX-PJu5srdvaaqD-95" target="apg3jHX-PJu5srdvaaqD-97">
          <mxGeometry relative="1" as="geometry" />
        </mxCell>
        <mxCell id="apg3jHX-PJu5srdvaaqD-94" style="edgeStyle=orthogonalEdgeStyle;rounded=0;sketch=1;hachureGap=4;jiggle=2;curveFitting=1;orthogonalLoop=1;jettySize=auto;html=1;entryX=0;entryY=0.5;entryDx=0;entryDy=0;fontFamily=Architects Daughter;fontSource=https%3A%2F%2Ffonts.googleapis.com%2Fcss%3Ffamily%3DArchitects%2BDaughter;fontSize=16;" edge="1" parent="1" source="apg3jHX-PJu5srdvaaqD-95" target="apg3jHX-PJu5srdvaaqD-98">
          <mxGeometry relative="1" as="geometry" />
        </mxCell>
        <mxCell id="apg3jHX-PJu5srdvaaqD-95" value="root rule" style="ellipse;whiteSpace=wrap;html=1;hachureGap=4;fontFamily=Architects Daughter;fontSource=https%3A%2F%2Ffonts.googleapis.com%2Fcss%3Ffamily%3DArchitects%2BDaughter;fontSize=20;" vertex="1" parent="1">
          <mxGeometry x="50" y="2090" width="120" height="80" as="geometry" />
        </mxCell>
        <mxCell id="apg3jHX-PJu5srdvaaqD-96" value="rule_1" style="ellipse;whiteSpace=wrap;html=1;hachureGap=4;fontFamily=Architects Daughter;fontSource=https%3A%2F%2Ffonts.googleapis.com%2Fcss%3Ffamily%3DArchitects%2BDaughter;fontSize=20;" vertex="1" parent="1">
          <mxGeometry x="340" y="1950" width="120" height="80" as="geometry" />
        </mxCell>
        <mxCell id="apg3jHX-PJu5srdvaaqD-97" value="rule_2" style="ellipse;whiteSpace=wrap;html=1;hachureGap=4;fontFamily=Architects Daughter;fontSource=https%3A%2F%2Ffonts.googleapis.com%2Fcss%3Ffamily%3DArchitects%2BDaughter;fontSize=20;" vertex="1" parent="1">
          <mxGeometry x="340" y="2200" width="120" height="80" as="geometry" />
        </mxCell>
        <mxCell id="apg3jHX-PJu5srdvaaqD-98" value="rule_3" style="ellipse;whiteSpace=wrap;html=1;hachureGap=4;fontFamily=Architects Daughter;fontSource=https%3A%2F%2Ffonts.googleapis.com%2Fcss%3Ffamily%3DArchitects%2BDaughter;fontSize=20;" vertex="1" parent="1">
          <mxGeometry x="340" y="2420" width="120" height="80" as="geometry" />
        </mxCell>
        <mxCell id="apg3jHX-PJu5srdvaaqD-99" value="Or" style="text;html=1;strokeColor=none;fillColor=none;align=center;verticalAlign=middle;whiteSpace=wrap;rounded=0;fontSize=20;fontFamily=Architects Daughter;" vertex="1" parent="1">
          <mxGeometry x="180" y="2084" width="60" height="30" as="geometry" />
        </mxCell>
      </root>
    </mxGraphModel>
  </diagram>
</mxfile>
